# AST/ASF file generated using VICON BodyLanguage
# -----------------------------------------------
:version 1.10
:name VICON
:units
  mass 1.0
  length 0.45
  angle deg
:documentation
   .ast/.asf automatically generated from VICON data using
   VICON BodyBuilder and BodyLanguage model FoxedUp or BRILLIANT.MOD
:root
   order TX TY TZ RX RY RZ
   axis XYZ
   position 0 0 0  
   orientation 0 0 0 
:bonedata
  begin
     id 1 
     name lhipjoint
     direction 0.612567 -0.751349 0.245431 
     length 2.42285 
     axis 0 0 0  XYZ
  end
  begin
     id 2 
     name lfemur
     direction 0.34202 -0.939693 0  
     length 7.11304  
     axis 0 0 20  XYZ
    dof rx ry rz
    limits (-160.0 20.0)
           (-70.0 70.0)
           (-60.0 70.0)
  end
  begin
     id 3 
     name ltibia
     direction 0.34202 -0.939693 0   
     length 7.84529   
     axis 0 0 20   XYZ
    dof rx
    limits (-10.0 170.0)
  end
  begin
     id 4 
     name lfoot
     direction 0.0779239 -0.214094 0.9737   
     length 1.97176   
     axis -90 7.62852e-016 20   XYZ
    dof rx rz
    limits (-45.0 90.0)
           (-70.0 20.0)
  end
  begin
     id 5 
     name ltoes
     direction 1.53565e-011 -4.21709e-011 1   
     length 0.993197   
     axis -90 7.62852e-016 20   XYZ
    dof rx
    limits (-90.0 20.0)
  end
  begin
     id 6 
     name rhipjoint
     direction -0.665722 -0.709315 0.231701   
     length 2.56642  
     axis 0 0 0  XYZ 
  end
  begin
     id 7 
     name rfemur
     direction -0.34202 -0.939693 0   
     length 7.32108   
     axis 0 0 -20   XYZ
    dof rx ry rz
    limits (-160.0 20.0)
           (-70.0 70.0)
           (-70.0 60.0)
  end
  begin
     id 8 
     name rtibia
     direction -0.34202 -0.939693 0   
     length 7.81254   
     axis 0 0 -20   XYZ
    dof rx
    limits (-10.0 170.0)
 end
 begin
     id 9 
     name rfoot
     direction -0.0832806 -0.228812 0.969902   
     length 2.08278  
     axis -90 -7.62852e-016 -20   XYZ
    dof rx rz
    limits (-45.0 90.0)
           (-20.0 70.0)
  end
  begin
     id 10 
     name rtoes
     direction -1.53589e-011 -4.22086e-011 1   
     length 1.04609   
     axis -90 -7.62852e-016 -20   XYZ
    dof rx
    limits (-90.0 20.0)
  end
  begin
     id 11 
     name lowerback
     direction -0.00506013 0.988403 -0.151766   
     length 2.01978   
     axis 0 0 0   XYZ
    dof rx ry rz
    limits (-20.0 45.0)
           (-30.0 30.0)
           (-30.0 30.0)
  end
  begin
     id 12 
     name upperback
     direction -0.00836389 0.99968 0.0238859   
     length 2.01276   
     axis 0 0 0   XYZ
    dof rx ry rz
    limits (-20.0 45.0)
           (-30.0 30.0)
           (-30.0 30.0)
  end
  begin
     id 13 
     name thorax
     direction -0.00684136 0.995386 0.0957043   
     length 2.07303   
     axis 0 0 0   XYZ
    dof rx ry rz
    limits (-20.0 45.0)
           (-30.0 30.0)
           (-30.0 30.0)
  end
  begin
     id 14 
     name lowerneck
     direction -0.0161045 0.999661 0.0204485   
     length 1.91243   
     axis 0 0 0   XYZ
    dof rx ry rz
    limits (-20.0 45.0)
           (-30.0 30.0)
           (-30.0 30.0)
  end
  begin
     id 15 
     name upperneck
     direction 0.0553583 0.990946 -0.122319   
     length 1.91574   
     axis 0 0 0   XYZ
    dof rx ry rz
    limits (-20.0 45.0)
           (-30.0 30.0)
           (-30.0 30.0)
  end
  begin
     id 16
     name head
     direction 0.0180273 0.998839 -0.0446756  
     length 1.92693  
     axis 0 0 0   XYZ
    dof rx ry rz
    limits (-20.0 45.0)
           (-30.0 30.0)
           (-30.0 30.0)
  end
  begin
     id 17 
     name lclavicle
     direction 0.945646 0.319323 -0.0615358  
     length 4.0076  
     axis 0 0 0   XYZ
    dof ry rz
    limits (-20.0 10.0)
           (0.0 20.0)
  end
  begin
     id 18 
     name lhumerus
     direction 1 -4.48967e-011 -2.79996e-027   
     length 5.64147   
     axis 180 -30 -90   XYZ
    dof rx ry rz
    limits (-60.0 90.0)
           (-90.0 90.0)
           (-90.0 90.0)
  end
  begin
     id 19
     name lradius
     direction 1 -4.48976e-011 -9.5122e-027   
     length 2.86444   
     axis 180 -30 -90   XYZ
    dof rx
    limits (-10.0 170.0)
  end
  begin
     id 20
     name lwrist
     direction 1 -4.48983e-011 -1.24047e-026   
     length 1.43222   
     axis 9.05591e-015 90 90   XYZ
    dof ry
    limits (-180.0 0.0)
 end
  begin
     id 21 
     name lhand
     direction 1 -4.4892e-011 -2.48094e-026   
     length 0.722123   
     axis 1.58305e-014 90 90   XYZ
    dof rx rz
    limits (-90.0 90.0)
           (-45.0 45.0)
  end
  begin
     id 22 
     name lfingers
     direction 1 -4.48895e-011 -4.96187e-026   
     length 0.582194   
     axis 3.1661e-014 90 90   XYZ
    dof rx
    limits (0.0 90.0)
  end
  begin
     id 23
     name lthumb
     direction 0.707107 -6.34961e-011 0.707107   
     length 0.835918   
     axis -90 45 2.85299e-015   XYZ
    dof rx rz
    limits (-45.0 45.0)
           (-45.0 45.0)
  end
  begin
     id 24 
     name rclavicle
     direction -0.932635 0.324218 -0.15835   
     length 3.65819  
     axis 0 0 0   XYZ 
    dof ry rz
    limits (-10.0 20.0)
           (-20.0 0.0)
  end
  begin
     id 25 
     name rhumerus
     direction -1 -4.48965e-011 -4.02296e-027  
     length 5.44729   
     axis 180 30 90   XYZ
    dof rx ry rz
    limits (-90.0 60.0)
           (-90.0 90.0)
           (-90.0 90.0)
  end
  begin
     id 26 
     name rradius
     direction -1 -4.48957e-011 -8.81087e-027   
     length 3.08821   
     axis 180 30 90   XYZ
    dof rx
    limits (-10.0 170.0)
  end
  begin
     id 27 
     name rwrist
     direction -1 -4.49015e-011 -1.24047e-026   
     length 1.5441   
     axis 9.05591e-015 -90 -90   XYZ
    dof ry
    limits (-180.0 0.0)
  end
  begin
     id 28
     name rhand
     direction -1 -4.4891e-011 -2.48094e-026   
     length 0.821049   
     axis 1.58305e-014 -90 -90   XYZ
    dof rx rz
    limits (-90.0 90.0)
           (-45.0 45.0)
  end
  begin
     id 29
     name rfingers
     direction -1 -4.48985e-011 -4.96187e-026   
     length 0.661951   
     axis 3.1661e-014 -90 -90   XYZ
    dof rx
    limits (0.0 90.0)
  end
  begin
     id 30
     name rthumb
     direction -0.707107 -6.34906e-011 0.707107   
     length 0.950433   
     axis -90 -45 -2.85299e-015   XYZ
    dof rx rz
    limits (-45.0 45.0)
           (-45.0 45.0)
  end
:hierarchy
  begin
    root lhipjoint rhipjoint lowerback
    lhipjoint lfemur
    lfemur ltibia
    ltibia lfoot
    lfoot ltoes
    rhipjoint rfemur
    rfemur rtibia
    rtibia rfoot
    rfoot rtoes
    lowerback upperback
    upperback thorax
    thorax lowerneck lclavicle rclavicle
    lowerneck upperneck
    upperneck head
    lclavicle lhumerus
    lhumerus lradius
    lradius lwrist
    lwrist lhand lthumb
    lhand lfingers
    rclavicle rhumerus
    rhumerus rradius
    rradius rwrist
    rwrist rhand rthumb
    rhand rfingers
  end

#!OML:ASF F:\VICON\USERDATA\INSTALL\rory3\rory3.ASF
:FULLY-SPECIFIED
:DEGREES
236
root 3.24075 17.5199 0.142253 23.5371 88.8279 25.4508
lowerback 3.45928 0.228401 3.08066
upperback 1.282 0.410738 -1.25458
thorax -0.59186 0.220257 -3.03428
lowerneck -4.19125 -5.06677 -4.95944
upperneck 3.40923 -6.84011 8.59238
head 2.37883 -3.25767 3.46142
rclavicle -2.57799e-015 -1.14301e-014
rhumerus -34.8438 28.9643 -94.7884
rradius 56.6835
rwrist -4.46413
rhand 13.754 13.7668
rfingers 7.12502
rthumb 38.6775 -11.8448
lclavicle -2.57799e-015 -1.14301e-014
lhumerus -36.6681 -44.0162 100.652
lradius 57.1987
lwrist 61.2154
lhand -1.77453 15.1692
lfingers 7.12502
lthumb 23.8896 43.7033
rfemur -3.38601 -1.31598 17.8692
rtibia 24.5726
rfoot -21.4723 -3.81494
rtoes -6.70147
lfemur -2.86318 3.16978 -16.2385
ltibia 19.0919
lfoot -13.4208 -5.7406
ltoes -3.29259
237
root 3.23954 17.5209 0.141609 19.7659 88.8321 21.6679
lowerback 3.48357 0.246665 3.14561
upperback 1.28773 0.438103 -1.23141
thorax -0.597119 0.234016 -3.0482
lowerneck -4.05075 -5.02261 -4.96513
upperneck 2.98035 -6.76142 8.68528
head 2.20879 -3.22563 3.50176
rclavicle -1.04051e-015 -4.67144e-015
rhumerus -35.005 29.42 -94.0323
rradius 59.5102
rwrist -6.57933
rhand 14.5638 13.4453
rfingers 7.12502
rthumb 39.4409 -11.947
lclavicle -1.04051e-015 -4.67144e-015
lhumerus -36.4569 -43.9979 99.7225
lradius 59.9019
lwrist 62.5169
lhand -1.74715 15.1605
lfingers 7.12502
lthumb 23.9159 43.6912
rfemur -3.3822 -1.3167 17.9445
rtibia 24.5345
rfoot -21.3911 -3.87327
rtoes -7.16717
lfemur -2.88326 3.14897 -16.1615
ltibia 19.1162
lfoot -13.45 -5.73242
ltoes -2.94402
238
root 3.23869 17.5223 0.143064 13.4196 88.781 15.2699
lowerback 3.47553 0.298644 3.2245
upperback 1.28066 0.509814 -1.1962
thorax -0.593976 0.269786 -3.05904
lowerneck -3.88125 -5.01029 -4.93806
upperneck 2.50699 -6.72318 8.74406
head 2.01939 -3.2155 3.52303
rclavicle -1.93504e-015 -3.8763e-015
rhumerus -35.1301 29.7677 -93.2021
rradius 62.2395
rwrist -8.43075
rhand 14.7276 13.5278
rfingers 7.12502
rthumb 39.5952 -11.8191
lclavicle -1.93504e-015 -3.8763e-015
lhumerus -36.1419 -43.8592 98.7386
lradius 62.5597
lwrist 63.5083
lhand -1.89115 15.0318
lfingers 7.12502
lthumb 23.7778 43.5806
rfemur -3.42979 -1.24029 18.0777
rtibia 24.4947
rfoot -21.3577 -3.91809
rtoes -7.32792
lfemur -2.92333 3.21009 -16.0299
ltibia 19.1223
lfoot -13.5097 -5.73718
ltoes -2.89709
239
root 3.23559 17.5243 0.142609 13.994 88.6646 15.7673
lowerback 3.47328 0.36041 3.17227
upperback 1.25522 0.590183 -1.2078
thorax -0.613125 0.309061 -3.04473
lowerneck -3.76029 -5.00623 -4.8868
upperneck 2.10447 -6.69787 8.7455
head 1.86027 -3.21078 3.51839
rclavicle -2.26428e-015 -1.07344e-014
rhumerus -35.167 30.0621 -92.31
rradius 64.8747
rwrist -10.2578
rhand 14.4727 13.7873
rfingers 7.12502
rthumb 39.3551 -11.6301
lclavicle -2.26428e-015 -1.07344e-014
lhumerus -35.708 -43.7019 97.701
lradius 65.147
lwrist 64.3804
lhand -1.73827 14.9674
lfingers 7.12502
lthumb 23.9244 43.4969
rfemur -3.52923 -1.15746 18.0337
rtibia 24.4618
rfoot -21.3153 -3.90777
rtoes -7.71063
lfemur -2.98778 3.29059 -16.086
ltibia 19.0986
lfoot -13.4994 -5.67824
ltoes -3.29121
240
root 3.23235 17.5241 0.139171 15.5638 88.6572 17.3771
lowerback 3.56811 0.358257 3.14572
upperback 1.27238 0.589646 -1.20978
thorax -0.648864 0.308583 -3.03267
lowerneck -3.66767 -4.96906 -4.83496
upperneck 1.71868 -6.62756 8.73054
head 1.70833 -3.18308 3.50947
rclavicle -4.63727e-015 2.28602e-015
rhumerus -35.034 30.3288 -91.2891
rradius 67.4803
rwrist -12.2714
rhand 14.4026 13.8848
rfingers 7.12502
rthumb 39.289 -11.5518
lclavicle -4.63727e-015 2.28602e-015
lhumerus -35.1022 -43.4405 96.5502
lradius 67.6188
lwrist 65.1577
lhand -1.5763 14.7274
lfingers 7.12502
lthumb 24.0797 43.2366
rfemur -3.48152 -1.20744 17.9692
rtibia 24.4243
rfoot -21.2458 -3.87134
rtoes -8.28375
lfemur -2.93475 3.25587 -16.1446
ltibia 19.0498
lfoot -13.4667 -5.65077
ltoes -2.93025
241
root 3.23167 17.5255 0.13586 18.391 88.7306 20.2427
lowerback 3.66881 0.325811 3.15621
upperback 1.25109 0.549728 -1.2393
thorax -0.72967 0.28692 -3.06862
lowerneck -3.51582 -4.92594 -4.79535
upperneck 1.36524 -6.55337 8.77142
head 1.55991 -3.1532 3.52388
rclavicle 3.91668e-015 -2.18663e-015
rhumerus -34.8854 30.4141 -90.2267
rradius 70.087
rwrist -14.531
rhand 14.7099 13.7948
rfingers 7.12502
rthumb 39.5785 -11.557
lclavicle 3.91668e-015 -2.18663e-015
lhumerus -34.5342 -43.0138 95.3531
lradius 70.0675
lwrist 65.6982
lhand -1.4016 14.2615
lfingers 7.12502
lthumb 24.2472 42.7484
rfemur -3.41166 -1.32406 17.8978
rtibia 24.4007
rfoot -21.2154 -3.83205
rtoes -8.09902
lfemur -2.86417 3.16322 -16.2046
ltibia 18.9609
lfoot -13.4079 -5.60625
ltoes -2.68234
242
root 3.23124 17.5275 0.133747 19.3322 88.7844 21.2029
lowerback 3.80444 0.286944 3.18753
upperback 1.17632 0.502822 -1.25891
thorax -0.885442 0.259218 -3.10632
lowerneck -3.36604 -4.87935 -4.7602
upperneck 1.10725 -6.47974 8.79286
head 1.44281 -3.12276 3.532
rclavicle 1.74247e-015 -8.94531e-015
rhumerus -34.734 30.5156 -89.1834
rradius 72.626
rwrist -16.8209
rhand 14.8333 13.5283
rfingers 7.12502
rthumb 39.6948 -11.7891
lclavicle 1.74247e-015 -8.94531e-015
lhumerus -34.0206 -42.5256 94.1353
lradius 72.5184
lwrist 66.2984
lhand -1.48623 13.8458
lfingers 7.12502
lthumb 24.1661 42.3435
rfemur -3.37227 -1.35277 17.8865
rtibia 24.3689
rfoot -21.2232 -3.82894
rtoes -7.75198
lfemur -2.80511 3.12804 -16.2172
ltibia 18.8746
lfoot -13.3433 -5.59322
ltoes -3.0965
243
root 3.22797 17.5309 0.133768 21.3783 88.7944 23.2429
lowerback 3.88499 0.259037 3.12327
upperback 1.13588 0.465558 -1.25808
thorax -0.975528 0.238192 -3.06856
lowerneck -3.22969 -4.8333 -4.70968
upperneck 0.776089 -6.40128 8.76553
head 1.30153 -3.09143 3.52063
rclavicle -8.69683e-016 -1.49089e-015
rhumerus -34.4531 30.6532 -88.0605
rradius 75.0179
rwrist -18.8972
rhand 14.3829 13.4114
rfingers 7.12502
rthumb 39.2705 -12.0306
lclavicle -8.69683e-016 -1.49089e-015
lhumerus -33.3347 -41.9726 92.8547
lradius 74.8646
lwrist 66.8579
lhand -1.72554 13.7007
lfingers 7.12502
lthumb 23.9366 42.2286
rfemur -3.3698 -1.31371 17.8557
rtibia 24.3379
rfoot -21.2589 -3.82897
rtoes -7.40288
lfemur -2.77152 3.06806 -16.2652
ltibia 18.7824
lfoot -13.3011 -5.54553
ltoes -3.17898
244
root 3.22119 17.5331 0.133973 25.1405 88.8706 26.9409
lowerback 3.89941 0.218329 3.04592
upperback 1.09388 0.408572 -1.2501
thorax -1.03177 0.207892 -3.01444
lowerneck -3.10144 -4.7823 -4.68665
upperneck 0.477192 -6.31747 8.77263
head 1.17495 -3.05631 3.52643
rclavicle -4.98204e-015 -1.3418e-014
rhumerus -34.1056 30.6105 -86.8799
rradius 77.3389
rwrist -21.0647
rhand 13.807 13.3008
rfingers 7.12502
rthumb 38.7275 -12.2967
lclavicle -4.98204e-015 -1.3418e-014
lhumerus -32.5617 -41.3967 91.5383
lradius 77.1683
lwrist 67.5159
lhand -1.83297 13.5516
lfingers 7.12502
lthumb 23.8336 42.0931
rfemur -3.42634 -1.32306 17.8243
rtibia 24.3073
rfoot -21.3158 -3.83933
rtoes -7.15225
lfemur -2.84444 2.97652 -16.3196
ltibia 18.6945
lfoot -13.2293 -5.51377
ltoes -2.99194
